<svg width="3205" height="1186" viewBox="0 0 3205 1186" fill="none" xmlns="http://www.w3.org/2000/svg">
<path d="M1121.21 503.898C1154.94 503.898 1185.7 512.102 1213.5 528.508C1241.3 544.458 1263.63 566.333 1280.49 594.133C1297.81 621.477 1306.47 652.238 1306.47 686.418C1306.47 720.598 1297.81 751.359 1280.49 778.703C1263.63 806.047 1241.3 827.922 1213.5 844.328C1185.7 860.279 1154.94 868.254 1121.21 868.254C1087.95 868.254 1057.18 860.279 1028.93 844.328C1001.13 827.922 978.799 806.047 961.938 778.703C945.076 751.359 936.645 720.598 936.645 686.418C936.645 652.238 945.076 621.477 961.938 594.133C978.799 566.333 1001.13 544.458 1028.93 528.508C1057.18 512.102 1087.95 503.898 1121.21 503.898ZM1121.21 587.98C1104.81 587.98 1089.54 591.854 1075.41 599.602C1061.29 607.349 1049.89 618.514 1041.23 633.098C1033.03 647.681 1028.93 665.454 1028.93 686.418C1028.93 707.382 1033.03 725.155 1041.23 739.738C1049.89 754.322 1061.29 765.487 1075.41 773.234C1089.54 780.526 1104.81 784.172 1121.21 784.172C1137.62 784.172 1152.89 780.526 1167.02 773.234C1181.14 765.487 1192.54 754.322 1201.2 739.738C1209.85 725.155 1214.18 707.382 1214.18 686.418C1214.18 665.454 1209.85 647.681 1201.2 633.098C1192.54 618.514 1181.14 607.349 1167.02 599.602C1152.89 591.854 1137.62 587.98 1121.21 587.98ZM1716.62 365.812V858H1629.81V799.895C1619.78 818.579 1605.2 834.758 1586.06 848.43C1566.92 861.646 1544.59 868.254 1519.07 868.254C1491.27 868.254 1465.52 861.19 1441.82 847.062C1418.58 832.935 1399.89 812.427 1385.77 785.539C1371.64 758.651 1364.57 726.066 1364.57 687.785C1364.57 649.504 1371.64 616.691 1385.77 589.348C1400.35 562.004 1419.72 541.04 1443.87 526.457C1468.48 511.418 1495.6 503.898 1525.22 503.898C1543.9 503.898 1562.82 508.228 1581.96 516.887C1601.1 525.546 1617.05 537.167 1629.81 551.75V365.812H1716.62ZM1542.99 589.348C1524.76 589.348 1509.04 594.133 1495.82 603.703C1483.06 612.818 1473.04 624.895 1465.75 639.934C1458.45 654.517 1454.81 670.467 1454.81 687.785C1454.81 713.762 1462.56 735.865 1478.05 754.094C1494 772.323 1514.96 781.438 1540.94 781.438C1556.44 781.438 1570.79 777.336 1584.01 769.133C1597.68 760.93 1608.62 749.536 1616.82 734.953C1625.48 719.914 1629.81 701.913 1629.81 680.949V631.73C1617.5 618.514 1604.06 608.26 1589.48 600.969C1575.35 593.221 1559.85 589.348 1542.99 589.348ZM1974.34 503.898C2008.06 503.898 2037 511.19 2061.16 525.773C2085.77 540.357 2104.45 560.637 2117.21 586.613C2130.43 612.134 2137.04 641.757 2137.04 675.48V712.395H1886.84C1891.4 735.637 1902.79 754.322 1921.02 768.449C1939.25 782.577 1961.58 789.641 1988.01 789.641C2013.08 789.641 2035.86 784.628 2056.37 774.602C2076.88 764.576 2093.29 754.322 2105.59 743.84L2104.91 824.504C2093.97 834.074 2077.56 843.872 2055.69 853.898C2034.27 863.469 2010.57 868.254 1984.59 868.254C1950.41 868.254 1919.2 860.507 1890.94 845.012C1863.14 829.517 1840.81 808.326 1823.95 781.438C1807.54 754.549 1799.34 723.788 1799.34 689.152C1799.34 655.428 1806.86 624.667 1821.9 596.867C1836.94 569.068 1857.67 546.737 1884.11 529.875C1910.54 512.557 1940.62 503.898 1974.34 503.898ZM1972.29 579.777C1950.87 579.777 1932.87 586.385 1918.29 599.602C1903.7 612.818 1893.68 630.591 1888.21 652.922H2053.64C2051.81 628.312 2042.7 610.083 2026.29 598.234C2009.89 585.93 1991.89 579.777 1972.29 579.777ZM2288.79 333C2305.2 333 2319.33 338.924 2331.18 350.773C2343.02 362.167 2348.95 375.839 2348.95 391.789C2348.95 407.284 2343.02 420.956 2331.18 432.805C2319.33 444.654 2305.2 450.578 2288.79 450.578C2272.39 450.578 2258.26 444.654 2246.41 432.805C2235.02 420.956 2229.32 407.284 2229.32 391.789C2229.32 375.839 2235.02 362.167 2246.41 350.773C2258.26 338.924 2272.39 333 2288.79 333ZM2339.38 512.785V858H2252.56V586.613H2197.19V512.785H2339.38ZM2535.57 512.785V562.004C2546.05 547.876 2560.18 534.66 2577.95 522.355C2596.18 510.051 2616.92 503.898 2640.16 503.898C2675.25 503.898 2704.65 515.747 2728.34 539.445C2752.04 563.143 2763.89 598.69 2763.89 646.086V858H2677.07L2676.39 657.707C2676.39 634.465 2670.69 617.147 2659.3 605.754C2648.36 594.361 2633.1 588.664 2613.5 588.664C2598.01 588.664 2583.42 593.677 2569.75 603.703C2556.53 613.729 2545.14 625.578 2535.57 639.25V858H2448.75V512.785H2535.57ZM3014.77 503.898C3048.49 503.898 3077.43 511.19 3101.59 525.773C3126.2 540.357 3144.88 560.637 3157.64 586.613C3170.86 612.134 3177.46 641.757 3177.46 675.48V712.395H2927.27C2931.83 735.637 2943.22 754.322 2961.45 768.449C2979.68 782.577 3002.01 789.641 3028.44 789.641C3053.51 789.641 3076.29 784.628 3096.8 774.602C3117.31 764.576 3133.71 754.322 3146.02 743.84L3145.34 824.504C3134.4 834.074 3117.99 843.872 3096.12 853.898C3074.7 863.469 3051 868.254 3025.02 868.254C2990.84 868.254 2959.63 860.507 2931.37 845.012C2903.57 829.517 2881.24 808.326 2864.38 781.438C2847.97 754.549 2839.77 723.788 2839.77 689.152C2839.77 655.428 2847.29 624.667 2862.33 596.867C2877.37 569.068 2898.1 546.737 2924.54 529.875C2950.97 512.557 2981.05 503.898 3014.77 503.898ZM3012.72 579.777C2991.3 579.777 2973.3 586.385 2958.71 599.602C2944.13 612.818 2934.11 630.591 2928.64 652.922H3094.07C3092.24 628.312 3083.13 610.083 3066.72 598.234C3050.32 585.93 3032.32 579.777 3012.72 579.777Z" fill="black"/>
<path d="M820.302 293.231L947.682 153.634C807.563 10.0487 608.001 -7.23468 525.735 2.07178C372.878 14.8349 252.397 129.703 211.263 185.542C99.8051 329.127 180.745 527.222 235.147 608.321C219.224 349.867 374.47 242.71 454.082 221.438C622.862 164.004 768.553 245.369 820.302 293.231Z" fill="#C74343"/>
<path d="M91.8445 863.584C-22.7975 716.808 -6.34448 488.667 16.2123 392.943C70.3491 705.64 245.763 836.994 326.702 863.584C514.589 962.498 734.055 880.867 820.302 827.688L947.682 967.284C794.825 1117.25 554.925 1114.86 454.082 1094.92C256.642 1059.82 130.324 926.07 91.8445 863.584Z" fill="#C74343"/>
<path d="M2555.25 965.969L2628.61 1123H2603.3L2586.89 1085.5H2513.3L2496.66 1123H2471.34L2544.7 965.969H2555.25ZM2550.33 1001.59L2521.97 1065.58H2578.22L2550.33 1001.59ZM2756.81 954.25V1123H2737.59V1103.08C2733.53 1109.33 2727.98 1114.8 2720.95 1119.48C2714.08 1124.17 2706.19 1126.52 2697.28 1126.52C2687.28 1126.52 2678.14 1124.02 2669.86 1119.02C2661.58 1113.86 2654.94 1106.75 2649.94 1097.69C2645.09 1088.62 2642.67 1078.16 2642.67 1066.28C2642.67 1053.31 2645.09 1042.14 2649.94 1032.77C2654.94 1023.39 2661.73 1016.2 2670.33 1011.2C2678.92 1006.05 2688.53 1003.47 2699.16 1003.47C2705.88 1003.47 2712.67 1005.11 2719.55 1008.39C2726.58 1011.52 2732.59 1015.89 2737.59 1021.52V954.25H2756.81ZM2702.67 1022.69C2694.23 1022.69 2687.05 1024.8 2681.11 1029.02C2675.17 1033.08 2670.56 1038.39 2667.28 1044.95C2664.16 1051.52 2662.59 1058.62 2662.59 1066.28C2662.59 1073.78 2664.16 1080.73 2667.28 1087.14C2670.41 1093.39 2674.78 1098.39 2680.41 1102.14C2686.19 1105.89 2692.83 1107.77 2700.33 1107.77C2707.52 1107.77 2713.92 1105.89 2719.55 1102.14C2725.17 1098.39 2729.62 1093.23 2732.91 1086.67C2736.19 1079.95 2737.75 1072.45 2737.59 1064.17L2737.36 1041.67C2732.52 1035.58 2727.28 1030.89 2721.66 1027.61C2716.19 1024.33 2709.86 1022.69 2702.67 1022.69ZM2815.88 1005.81V1020.81C2819.62 1016.59 2824.39 1012.69 2830.17 1009.09C2836.11 1005.34 2843.06 1003.47 2851.03 1003.47C2859.47 1003.47 2867.36 1005.5 2874.7 1009.56C2882.05 1013.47 2887.67 1019.41 2891.58 1027.38C2897.05 1020.81 2902.98 1015.19 2909.39 1010.5C2915.8 1005.81 2923.3 1003.47 2931.89 1003.47C2939.86 1003.47 2947.28 1005.27 2954.16 1008.86C2961.19 1012.3 2966.81 1017.61 2971.03 1024.8C2975.41 1031.83 2977.59 1040.73 2977.59 1051.52V1123H2958.38L2958.14 1053.39C2958.14 1043.23 2955.48 1035.5 2950.17 1030.19C2945.02 1024.88 2937.83 1022.22 2928.61 1022.22C2921.89 1022.22 2916.03 1024.33 2911.03 1028.55C2906.03 1032.77 2901.27 1037.69 2896.73 1043.31V1123H2877.52L2877.28 1053.39C2877.28 1043.23 2874.62 1035.5 2869.31 1030.19C2864.16 1024.88 2856.97 1022.22 2847.75 1022.22C2841.34 1022.22 2835.48 1024.09 2830.17 1027.84C2825.02 1031.59 2820.25 1036.12 2815.88 1041.44V1123H2796.66V1005.81H2815.88ZM3032.67 949.562C3037.2 949.562 3040.95 951.203 3043.92 954.484C3047.05 957.609 3048.61 961.281 3048.61 965.5C3048.61 969.562 3047.05 973.234 3043.92 976.516C3040.95 979.797 3037.2 981.438 3032.67 981.438C3028.14 981.438 3024.31 979.797 3021.19 976.516C3018.22 973.234 3016.73 969.562 3016.73 965.5C3016.73 961.281 3018.22 957.609 3021.19 954.484C3024.31 951.203 3028.14 949.562 3032.67 949.562ZM3044.62 1005.81V1123H3025.41V1023.86H3006.89V1005.81H3044.62ZM3105.33 1005.81V1024.33C3107.83 1021.2 3111.03 1018.08 3114.94 1014.95C3118.84 1011.67 3123.22 1008.94 3128.06 1006.75C3133.06 1004.56 3138.22 1003.47 3143.53 1003.47C3151.5 1003.47 3158.77 1005.27 3165.33 1008.86C3171.89 1012.3 3177.12 1017.61 3181.03 1024.8C3184.94 1031.83 3186.89 1040.73 3186.89 1051.52V1123H3167.67L3167.44 1053.39C3167.44 1043.23 3165.17 1035.5 3160.64 1030.19C3156.27 1024.88 3149.47 1022.22 3140.25 1022.22C3134 1022.22 3127.75 1024.56 3121.5 1029.25C3115.41 1033.78 3110.02 1039.09 3105.33 1045.19V1123H3086.11V1005.81H3105.33Z" fill="black"/>
</svg>
