<svg width="948" height="1105" viewBox="0 0 948 1105" fill="none" xmlns="http://www.w3.org/2000/svg">
<path d="M820.302 293.231L947.682 153.634C807.563 10.0487 608.001 -7.23468 525.735 2.07178C372.878 14.8349 252.397 129.703 211.263 185.542C99.8051 329.127 180.745 527.222 235.147 608.321C219.224 349.867 374.47 242.71 454.082 221.438C622.862 164.004 768.553 245.369 820.302 293.231Z" fill="#C74343"/>
<path d="M91.8445 863.584C-22.7975 716.808 -6.34448 488.667 16.2123 392.943C70.3491 705.64 245.763 836.994 326.702 863.584C514.589 962.498 734.055 880.867 820.302 827.688L947.682 967.284C794.825 1117.25 554.925 1114.86 454.082 1094.92C256.642 1059.82 130.324 926.07 91.8445 863.584Z" fill="#C74343"/>
</svg>
