<svg width="181" height="48" viewBox="0 0 181 48" fill="none" xmlns="http://www.w3.org/2000/svg">
<path d="M9.52734 9.29492C10.8034 9.29492 11.8516 9.5 12.6719 9.91016C13.4922 10.3203 14.1416 10.7191 14.6201 11.1064V15.1055C14.0277 14.6725 13.3555 14.3079 12.6035 14.0117C11.8743 13.7155 10.9743 13.5674 9.90332 13.5674C9.03743 13.5674 8.22852 13.7839 7.47656 14.2168C6.7474 14.6497 6.16634 15.2308 5.7334 15.96C5.30046 16.6891 5.08398 17.5208 5.08398 18.4551C5.08398 19.8678 5.53971 21.0299 6.45117 21.9414C7.36263 22.8529 8.51335 23.3086 9.90332 23.3086C10.9743 23.3086 11.8743 23.1719 12.6035 22.8984C13.3555 22.6022 14.0277 22.2376 14.6201 21.8047V25.7695C14.1416 26.1797 13.4922 26.5785 12.6719 26.9658C11.8516 27.3304 10.8034 27.5127 9.52734 27.5127C7.77279 27.5127 6.21191 27.1025 4.84473 26.2822C3.50033 25.4391 2.42936 24.334 1.63184 22.9668C0.857096 21.5768 0.469727 20.0729 0.469727 18.4551C0.469727 17.2474 0.686198 16.0967 1.11914 15.0029C1.57487 13.9092 2.21289 12.9408 3.0332 12.0977C3.85352 11.2318 4.81055 10.5482 5.9043 10.0469C7.02083 9.54557 8.22852 9.29492 9.52734 9.29492ZM26.5146 9.29492C28.2008 9.29492 29.7389 9.70508 31.1289 10.5254C32.5189 11.3229 33.6354 12.4167 34.4785 13.8066C35.3444 15.1738 35.7773 16.7119 35.7773 18.4209C35.7773 20.1299 35.3444 21.668 34.4785 23.0352C33.6354 24.4023 32.5189 25.4961 31.1289 26.3164C29.7389 27.1139 28.2008 27.5127 26.5146 27.5127C24.8512 27.5127 23.3132 27.1139 21.9004 26.3164C20.5104 25.4961 19.3939 24.4023 18.5508 23.0352C17.7077 21.668 17.2861 20.1299 17.2861 18.4209C17.2861 16.7119 17.7077 15.1738 18.5508 13.8066C19.3939 12.4167 20.5104 11.3229 21.9004 10.5254C23.3132 9.70508 24.8512 9.29492 26.5146 9.29492ZM26.5146 13.499C25.6943 13.499 24.931 13.6927 24.2246 14.0801C23.5182 14.4674 22.9486 15.0257 22.5156 15.7549C22.1055 16.484 21.9004 17.3727 21.9004 18.4209C21.9004 19.4691 22.1055 20.3577 22.5156 21.0869C22.9486 21.8161 23.5182 22.3743 24.2246 22.7617C24.931 23.1263 25.6943 23.3086 26.5146 23.3086C27.335 23.3086 28.0983 23.1263 28.8047 22.7617C29.5111 22.3743 30.0807 21.8161 30.5137 21.0869C30.9466 20.3577 31.1631 19.4691 31.1631 18.4209C31.1631 17.3727 30.9466 16.484 30.5137 15.7549C30.0807 15.0257 29.5111 14.4674 28.8047 14.0801C28.0983 13.6927 27.335 13.499 26.5146 13.499ZM56.2852 2.39062V27H51.9443V24.0947C51.443 25.029 50.7139 25.8379 49.7568 26.5215C48.7998 27.1823 47.6833 27.5127 46.4072 27.5127C45.0173 27.5127 43.7298 27.1595 42.5449 26.4531C41.3828 25.7467 40.4486 24.7214 39.7422 23.377C39.0358 22.0326 38.6826 20.4033 38.6826 18.4893C38.6826 16.5752 39.0358 14.9346 39.7422 13.5674C40.4714 12.2002 41.4398 11.152 42.6475 10.4229C43.8779 9.6709 45.2337 9.29492 46.7148 9.29492C47.6491 9.29492 48.5947 9.51139 49.5518 9.94434C50.5088 10.3773 51.3063 10.9583 51.9443 11.6875V2.39062H56.2852ZM47.6035 13.5674C46.6921 13.5674 45.9059 13.8066 45.2451 14.2852C44.6071 14.7409 44.1058 15.3447 43.7412 16.0967C43.3766 16.8258 43.1943 17.6234 43.1943 18.4893C43.1943 19.7881 43.5817 20.8932 44.3564 21.8047C45.154 22.7161 46.2021 23.1719 47.501 23.1719C48.2757 23.1719 48.9935 22.9668 49.6543 22.5566C50.3379 22.1465 50.8848 21.5768 51.2949 20.8477C51.7279 20.0957 51.9443 19.1956 51.9443 18.1475V15.6865C51.3291 15.0257 50.6569 14.513 49.9277 14.1484C49.2214 13.7611 48.4466 13.5674 47.6035 13.5674ZM69.1709 9.29492C70.8571 9.29492 72.304 9.65951 73.5117 10.3887C74.7422 11.1178 75.6764 12.1318 76.3145 13.4307C76.9753 14.7067 77.3057 16.1878 77.3057 17.874V19.7197H64.7959C65.0238 20.8818 65.5934 21.8161 66.5049 22.5225C67.4163 23.2288 68.5329 23.582 69.8545 23.582C71.1077 23.582 72.2471 23.3314 73.2725 22.8301C74.2979 22.3288 75.1182 21.8161 75.7334 21.292L75.6992 25.3252C75.1523 25.8037 74.332 26.2936 73.2383 26.7949C72.1673 27.2734 70.9824 27.5127 69.6836 27.5127C67.9746 27.5127 66.4137 27.1253 65.001 26.3506C63.611 25.5758 62.4945 24.5163 61.6514 23.1719C60.8311 21.8275 60.4209 20.2894 60.4209 18.5576C60.4209 16.8714 60.7969 15.3333 61.5488 13.9434C62.3008 12.5534 63.3376 11.4368 64.6592 10.5938C65.9808 9.72786 67.4847 9.29492 69.1709 9.29492ZM69.0684 13.0889C67.9974 13.0889 67.0973 13.4193 66.3682 14.0801C65.639 14.7409 65.1377 15.6296 64.8643 16.7461H73.1357C73.0446 15.5156 72.5889 14.6042 71.7686 14.0117C70.9482 13.3965 70.0482 13.0889 69.0684 13.0889ZM84.8936 0.75C85.7139 0.75 86.4202 1.04622 87.0127 1.63867C87.6051 2.20833 87.9014 2.89193 87.9014 3.68945C87.9014 4.46419 87.6051 5.14779 87.0127 5.74023C86.4202 6.33268 85.7139 6.62891 84.8936 6.62891C84.0732 6.62891 83.3669 6.33268 82.7744 5.74023C82.2048 5.14779 81.9199 4.46419 81.9199 3.68945C81.9199 2.89193 82.2048 2.20833 82.7744 1.63867C83.3669 1.04622 84.0732 0.75 84.8936 0.75ZM87.4229 9.73926V27H83.082V13.4307H80.3135V9.73926H87.4229ZM97.2324 9.73926V12.2002C97.7565 11.4938 98.4629 10.833 99.3516 10.2178C100.263 9.60254 101.3 9.29492 102.462 9.29492C104.216 9.29492 105.686 9.88737 106.871 11.0723C108.056 12.2572 108.648 14.0345 108.648 16.4043V27H104.308L104.273 16.9854C104.273 15.8232 103.989 14.9574 103.419 14.3877C102.872 13.818 102.109 13.5332 101.129 13.5332C100.354 13.5332 99.625 13.7839 98.9414 14.2852C98.2806 14.7865 97.7109 15.3789 97.2324 16.0625V27H92.8916V9.73926H97.2324ZM121.192 9.29492C122.879 9.29492 124.326 9.65951 125.533 10.3887C126.764 11.1178 127.698 12.1318 128.336 13.4307C128.997 14.7067 129.327 16.1878 129.327 17.874V19.7197H116.817C117.045 20.8818 117.615 21.8161 118.526 22.5225C119.438 23.2288 120.554 23.582 121.876 23.582C123.129 23.582 124.269 23.3314 125.294 22.8301C126.319 22.3288 127.14 21.8161 127.755 21.292L127.721 25.3252C127.174 25.8037 126.354 26.2936 125.26 26.7949C124.189 27.2734 123.004 27.5127 121.705 27.5127C119.996 27.5127 118.435 27.1253 117.022 26.3506C115.632 25.5758 114.516 24.5163 113.673 23.1719C112.853 21.8275 112.442 20.2894 112.442 18.5576C112.442 16.8714 112.818 15.3333 113.57 13.9434C114.322 12.5534 115.359 11.4368 116.681 10.5938C118.002 9.72786 119.506 9.29492 121.192 9.29492ZM121.09 13.0889C120.019 13.0889 119.119 13.4193 118.39 14.0801C117.66 14.7409 117.159 15.6296 116.886 16.7461H125.157C125.066 15.5156 124.61 14.6042 123.79 14.0117C122.97 13.3965 122.07 13.0889 121.09 13.0889Z" fill="white"/>
<path d="M70.8242 42.8379V44H66.5039V42.8379H68.0488V36.002H66.5039V34.8398H70.8242V36.002H69.2793V42.8379H70.8242ZM74.6113 37.1641V38.2441C74.7572 38.0618 74.944 37.8796 75.1719 37.6973C75.3997 37.5059 75.6549 37.3464 75.9375 37.2188C76.2292 37.0911 76.5299 37.0273 76.8398 37.0273C77.3047 37.0273 77.7285 37.1322 78.1113 37.3418C78.4941 37.5423 78.7995 37.8522 79.0273 38.2715C79.2552 38.6816 79.3691 39.2012 79.3691 39.8301V44H78.248L78.2344 39.9395C78.2344 39.347 78.1022 38.8958 77.8379 38.5859C77.5827 38.276 77.1862 38.1211 76.6484 38.1211C76.2839 38.1211 75.9193 38.2578 75.5547 38.5312C75.1992 38.7956 74.8848 39.1055 74.6113 39.4609V44H73.4902V37.1641H74.6113ZM87.668 34.1562V44H86.5469V42.8379C86.3099 43.2025 85.9863 43.5215 85.5762 43.7949C85.1751 44.0684 84.7148 44.2051 84.1953 44.2051C83.612 44.2051 83.0788 44.0592 82.5957 43.7676C82.1126 43.4668 81.7253 43.0521 81.4336 42.5234C81.151 41.9948 81.0098 41.3841 81.0098 40.6914C81.0098 39.9349 81.151 39.2832 81.4336 38.7363C81.7253 38.1895 82.1217 37.7702 82.623 37.4785C83.1243 37.1777 83.6849 37.0273 84.3047 37.0273C84.6966 37.0273 85.0931 37.123 85.4941 37.3145C85.9043 37.4967 86.2552 37.752 86.5469 38.0801V34.1562H87.668ZM84.5098 38.1484C84.0176 38.1484 83.5983 38.2715 83.252 38.5176C82.9056 38.7546 82.6367 39.0645 82.4453 39.4473C82.263 39.8301 82.1719 40.2448 82.1719 40.6914C82.1719 41.1289 82.263 41.5345 82.4453 41.9082C82.6276 42.2728 82.8828 42.5645 83.2109 42.7832C83.5482 43.002 83.9355 43.1113 84.373 43.1113C84.7923 43.1113 85.166 43.002 85.4941 42.7832C85.8223 42.5645 86.082 42.2637 86.2734 41.8809C86.4648 41.4889 86.556 41.0514 86.5469 40.5684L86.5332 39.2559C86.2507 38.9004 85.9453 38.627 85.6172 38.4355C85.2982 38.2441 84.929 38.1484 84.5098 38.1484ZM95.584 37.1641V41.2109C95.584 41.8125 95.4564 42.332 95.2012 42.7695C94.946 43.207 94.5996 43.5443 94.1621 43.7812C93.7246 44.0182 93.2324 44.1367 92.6855 44.1367C92.1387 44.1367 91.6465 44.0182 91.209 43.7812C90.7715 43.5443 90.4251 43.207 90.1699 42.7695C89.9147 42.332 89.7871 41.8125 89.7871 41.2109V37.1641H90.9492V41.2109C90.9492 41.8034 91.1224 42.2591 91.4688 42.5781C91.8242 42.888 92.2298 43.043 92.6855 43.043C93.1413 43.043 93.5423 42.888 93.8887 42.5781C94.2441 42.2591 94.4219 41.8034 94.4219 41.2109V37.1641H95.584ZM99.7402 37.0273C100.141 37.0273 100.515 37.0866 100.861 37.2051C101.208 37.3145 101.458 37.4284 101.613 37.5469V38.75C101.422 38.6042 101.162 38.4629 100.834 38.3262C100.506 38.1895 100.169 38.1211 99.8223 38.1211C99.3939 38.1211 99.0703 38.2214 98.8516 38.4219C98.6419 38.6224 98.5371 38.832 98.5371 39.0508C98.5371 39.224 98.5964 39.4017 98.7148 39.584C98.8424 39.7572 99.0612 39.8984 99.3711 40.0078L100.52 40.418C100.966 40.5729 101.299 40.7962 101.518 41.0879C101.736 41.3796 101.846 41.7214 101.846 42.1133C101.846 42.4961 101.736 42.847 101.518 43.166C101.308 43.485 101.012 43.7402 100.629 43.9316C100.255 44.1139 99.8223 44.2051 99.3301 44.2051C99.0658 44.2051 98.7878 44.1686 98.4961 44.0957C98.2135 44.0319 97.9583 43.9544 97.7305 43.8633C97.5026 43.763 97.334 43.6764 97.2246 43.6035V42.4004C97.3522 42.4915 97.5299 42.5964 97.7578 42.7148C97.9948 42.8242 98.2454 42.9199 98.5098 43.002C98.7741 43.0749 99.0202 43.1113 99.248 43.1113C99.6764 43.1113 100.014 43.0156 100.26 42.8242C100.515 42.6328 100.643 42.3958 100.643 42.1133C100.643 41.8945 100.556 41.7214 100.383 41.5938C100.219 41.4661 99.9772 41.3431 99.6582 41.2246L98.6465 40.8555C98.1178 40.6549 97.7669 40.4043 97.5938 40.1035C97.4206 39.7936 97.334 39.4427 97.334 39.0508C97.334 38.4674 97.5527 37.9844 97.9902 37.6016C98.4277 37.2188 99.0111 37.0273 99.7402 37.0273ZM105.441 35.1953V37.1641H107.438V38.2168H105.441V42.2227C105.441 42.5052 105.514 42.7285 105.66 42.8926C105.806 43.0566 106.029 43.1387 106.33 43.1387C106.604 43.1387 106.831 43.1068 107.014 43.043C107.196 42.9701 107.355 42.8926 107.492 42.8105V43.7266C107.31 43.8724 107.114 43.9863 106.904 44.0684C106.704 44.1595 106.43 44.2051 106.084 44.2051C105.501 44.2051 105.059 44.0319 104.758 43.6855C104.466 43.3301 104.32 42.8607 104.32 42.2773V38.2168H103.008V37.8887C103.454 37.6882 103.828 37.36 104.129 36.9043C104.43 36.4395 104.694 35.8698 104.922 35.1953H105.441ZM110.596 37.1641V38.5312C110.86 38.0755 111.179 37.7109 111.553 37.4375C111.926 37.1641 112.309 37.0273 112.701 37.0273C112.965 37.0273 113.202 37.0729 113.412 37.1641V38.4629C113.12 38.2897 112.829 38.2031 112.537 38.2031C112.072 38.2031 111.694 38.3672 111.402 38.6953C111.12 39.0234 110.851 39.4154 110.596 39.8711V44H109.475V37.1641H110.596ZM115.23 37.1641L117.623 42.1953L119.947 37.1641H121.287L116.256 47.2812H114.957L116.912 43.5898L113.891 37.1641H115.23ZM130.748 34.8398C131.277 34.8398 131.783 34.9629 132.266 35.209C132.749 35.446 133.145 35.7923 133.455 36.248C133.774 36.6947 133.934 37.2324 133.934 37.8613C133.934 38.3991 133.783 38.8958 133.482 39.3516C133.182 39.8073 132.771 40.1764 132.252 40.459C131.742 40.7324 131.172 40.8691 130.543 40.8691C130.078 40.8691 129.65 40.8236 129.258 40.7324C128.875 40.6322 128.565 40.5273 128.328 40.418V44H127.098V34.8398H130.748ZM128.328 36.002V39.2969C128.574 39.3971 128.893 39.4928 129.285 39.584C129.686 39.666 130.092 39.707 130.502 39.707C131.195 39.707 131.728 39.5293 132.102 39.1738C132.484 38.8092 132.676 38.3717 132.676 37.8613C132.676 37.4694 132.566 37.1367 132.348 36.8633C132.138 36.5898 131.86 36.3802 131.514 36.2344C131.167 36.0794 130.798 36.002 130.406 36.002H128.328ZM138.596 37.0273C138.988 37.0273 139.384 37.123 139.785 37.3145C140.195 37.4967 140.546 37.752 140.838 38.0801V37.1641H141.959V44H140.838V42.8379C140.601 43.2025 140.277 43.5215 139.867 43.7949C139.466 44.0684 139.006 44.2051 138.486 44.2051C137.903 44.2051 137.37 44.0592 136.887 43.7676C136.404 43.4668 136.016 43.0521 135.725 42.5234C135.442 41.9948 135.301 41.3841 135.301 40.6914C135.301 39.9349 135.442 39.2832 135.725 38.7363C136.016 38.1895 136.413 37.7702 136.914 37.4785C137.415 37.1777 137.976 37.0273 138.596 37.0273ZM138.801 38.1211C138.309 38.1211 137.889 38.2441 137.543 38.4902C137.197 38.7363 136.928 39.0553 136.736 39.4473C136.554 39.8301 136.463 40.2448 136.463 40.6914C136.463 41.1289 136.554 41.5345 136.736 41.9082C136.919 42.2728 137.174 42.5645 137.502 42.7832C137.839 43.002 138.227 43.1113 138.664 43.1113C139.083 43.1113 139.457 43.002 139.785 42.7832C140.113 42.5645 140.373 42.2637 140.564 41.8809C140.756 41.4889 140.847 41.0514 140.838 40.5684L140.824 39.2559C140.542 38.9004 140.236 38.6224 139.908 38.4219C139.589 38.2214 139.22 38.1211 138.801 38.1211ZM145.404 37.1641V38.5312C145.669 38.0755 145.988 37.7109 146.361 37.4375C146.735 37.1641 147.118 37.0273 147.51 37.0273C147.774 37.0273 148.011 37.0729 148.221 37.1641V38.4629C147.929 38.2897 147.637 38.2031 147.346 38.2031C146.881 38.2031 146.503 38.3672 146.211 38.6953C145.928 39.0234 145.66 39.4154 145.404 39.8711V44H144.283V37.1641H145.404ZM151.543 35.1953V37.1641H153.539V38.2168H151.543V42.2227C151.543 42.5052 151.616 42.7285 151.762 42.8926C151.908 43.0566 152.131 43.1387 152.432 43.1387C152.705 43.1387 152.933 43.1068 153.115 43.043C153.298 42.9701 153.457 42.8926 153.594 42.8105V43.7266C153.411 43.8724 153.215 43.9863 153.006 44.0684C152.805 44.1595 152.532 44.2051 152.186 44.2051C151.602 44.2051 151.16 44.0319 150.859 43.6855C150.568 43.3301 150.422 42.8607 150.422 42.2773V38.2168H149.109V37.8887C149.556 37.6882 149.93 37.36 150.23 36.9043C150.531 36.4395 150.796 35.8698 151.023 35.1953H151.543ZM156.697 37.1641V38.2441C156.843 38.0618 157.03 37.8796 157.258 37.6973C157.486 37.5059 157.741 37.3464 158.023 37.2188C158.315 37.0911 158.616 37.0273 158.926 37.0273C159.391 37.0273 159.814 37.1322 160.197 37.3418C160.58 37.5423 160.885 37.8522 161.113 38.2715C161.341 38.6816 161.455 39.2012 161.455 39.8301V44H160.334L160.32 39.9395C160.32 39.347 160.188 38.8958 159.924 38.5859C159.669 38.276 159.272 38.1211 158.734 38.1211C158.37 38.1211 158.005 38.2578 157.641 38.5312C157.285 38.7956 156.971 39.1055 156.697 39.4609V44H155.576V37.1641H156.697ZM166.391 37.0273C167.092 37.0273 167.676 37.1732 168.141 37.4648C168.605 37.7565 168.952 38.153 169.18 38.6543C169.417 39.1556 169.535 39.7207 169.535 40.3496V41.0195H164.285C164.34 41.4023 164.472 41.7533 164.682 42.0723C164.891 42.3913 165.165 42.6465 165.502 42.8379C165.839 43.0202 166.227 43.1113 166.664 43.1113C167.156 43.1113 167.617 42.9883 168.045 42.7422C168.473 42.487 168.833 42.209 169.125 41.9082L169.111 43.125C168.984 43.2799 168.792 43.444 168.537 43.6172C168.291 43.7812 168.004 43.918 167.676 44.0273C167.357 44.1458 167.02 44.2051 166.664 44.2051C165.971 44.2051 165.356 44.041 164.818 43.7129C164.281 43.3848 163.857 42.9518 163.547 42.4141C163.246 41.8672 163.096 41.2702 163.096 40.623C163.096 39.9759 163.237 39.3789 163.52 38.832C163.802 38.2852 164.189 37.8477 164.682 37.5195C165.183 37.1914 165.753 37.0273 166.391 37.0273ZM166.391 38.1211C165.826 38.1211 165.361 38.3125 164.996 38.6953C164.632 39.069 164.404 39.5247 164.312 40.0625H168.428C168.382 39.6159 168.255 39.2513 168.045 38.9688C167.844 38.6862 167.598 38.4766 167.307 38.3398C167.015 38.194 166.71 38.1211 166.391 38.1211ZM172.502 37.1641V38.5312C172.766 38.0755 173.085 37.7109 173.459 37.4375C173.833 37.1641 174.215 37.0273 174.607 37.0273C174.872 37.0273 175.109 37.0729 175.318 37.1641V38.4629C175.027 38.2897 174.735 38.2031 174.443 38.2031C173.979 38.2031 173.6 38.3672 173.309 38.6953C173.026 39.0234 172.757 39.4154 172.502 39.8711V44H171.381V37.1641H172.502ZM178.791 37.0273C179.192 37.0273 179.566 37.0866 179.912 37.2051C180.258 37.3145 180.509 37.4284 180.664 37.5469V38.75C180.473 38.6042 180.213 38.4629 179.885 38.3262C179.557 38.1895 179.219 38.1211 178.873 38.1211C178.445 38.1211 178.121 38.2214 177.902 38.4219C177.693 38.6224 177.588 38.832 177.588 39.0508C177.588 39.224 177.647 39.4017 177.766 39.584C177.893 39.7572 178.112 39.8984 178.422 40.0078L179.57 40.418C180.017 40.5729 180.35 40.7962 180.568 41.0879C180.787 41.3796 180.896 41.7214 180.896 42.1133C180.896 42.4961 180.787 42.847 180.568 43.166C180.359 43.485 180.062 43.7402 179.68 43.9316C179.306 44.1139 178.873 44.2051 178.381 44.2051C178.117 44.2051 177.839 44.1686 177.547 44.0957C177.264 44.0319 177.009 43.9544 176.781 43.8633C176.553 43.763 176.385 43.6764 176.275 43.6035V42.4004C176.403 42.4915 176.581 42.5964 176.809 42.7148C177.046 42.8242 177.296 42.9199 177.561 43.002C177.825 43.0749 178.071 43.1113 178.299 43.1113C178.727 43.1113 179.064 43.0156 179.311 42.8242C179.566 42.6328 179.693 42.3958 179.693 42.1133C179.693 41.8945 179.607 41.7214 179.434 41.5938C179.27 41.4661 179.028 41.3431 178.709 41.2246L177.697 40.8555C177.169 40.6549 176.818 40.4043 176.645 40.1035C176.471 39.7936 176.385 39.4427 176.385 39.0508C176.385 38.4674 176.604 37.9844 177.041 37.6016C177.479 37.2188 178.062 37.0273 178.791 37.0273Z" fill="white"/>
</svg>
